<svg xmlns="http://www.w3.org/2000/svg" xmlns:xlink="http://www.w3.org/1999/xlink" viewBox="0 0 24 24">
    <g fill="none">
        <path d="M12.748 4.001l-.001.002h7.498c.967 0 1.75.784 1.75 1.75v12.495a1.75 1.75 0 0 1-1.75 1.75h-8.997l-.001-.002H3.75A1.75 1.75 0 0 1 2 18.246V5.751c0-.967.784-1.75 1.75-1.75h8.998zm7.497 1.502h-7.497v12.995h7.497a.25.25 0 0 0 .25-.25V5.754a.25.25 0 0 0-.25-.25zm-8.997-.002H3.75a.25.25 0 0 0-.25.25v12.495c0 .138.112.25.25.25h7.498V5.501zm3.454 7.9l.083.073l1.718 1.75l1.714-1.75a.75.75 0 0 1 1.143.966l-.071.085l-2.25 2.295a.75.75 0 0 1-.987.075l-.084-.074l-2.253-2.296a.75.75 0 0 1 .987-1.124zm2.337-6.176l2.25 2.296a.75.75 0 0 1-1.072 1.05l-1.714-1.75l-1.718 1.75a.75.75 0 0 1-1.07-1.05l2.253-2.297a.75.75 0 0 1 1.07 0z" fill="currentColor"></path>
    </g>
</svg>